Coordinates
version=1
nRows=16
nColumns=36
inDegrees=yes

Units are S.I. units (second, meters, Newtons, ...)
If the header above contains a line with 'inDegrees', this indicates whether rotational values are in degrees (yes) or radians (no).

endheader
time	pelvis_tilt	pelvis_list	pelvis_rotation	pelvis_tx	pelvis_ty	pelvis_tz	hip_flexion_r	hip_adduction_r	hip_rotation_r	knee_angle_r	knee_angle_r_beta	ankle_angle_r	subtalar_angle_r	mtp_angle_r	hip_flexion_l	hip_adduction_l	hip_rotation_l	knee_angle_l	knee_angle_l_beta	ankle_angle_l	subtalar_angle_l	mtp_angle_l	lumbar_extension	lumbar_bending	lumbar_rotation	arm_flex_r	arm_add_r	arm_rot_r	elbow_flex_r	pro_sup_r	arm_flex_l	arm_add_l	arm_rot_l	elbow_flex_l	pro_sup_l
      2.95000000	     -1.07255786	      3.32667532	     -2.17160084	      0.17005025	      0.92375282	      0.02096514	     -1.29332992	      4.18522200	      6.70699322	      1.89057395	      0.03299674	      8.27948002	     -6.47219988	     -7.49999987	      2.33522388	     -3.35807562	      1.04704313	      8.34848233	      0.14570850	      5.10857292	     -8.32778311	     -7.49999987	      3.24548490	      3.57251553	      0.34589699	     48.34013014	      8.12574129	     41.84559447	    109.80506803	     85.57832928	     63.71854209	      6.83903893	     66.29341660	    115.17685528	     72.84762540
      2.96666670	     -1.12296752	      3.38238469	     -1.98136107	      0.17012848	      0.92194623	      0.01868507	     -0.96252336	      4.09119170	      6.52933337	      2.24960181	      0.03926296	      8.17907476	     -6.73391540	     -7.49999987	      2.20607703	     -3.21402136	      0.96601703	      7.86155263	      0.13720998	      4.85340182	     -8.11867142	     -7.49999987	      3.20833895	      3.45162823	     -0.20727352	     48.55555198	      8.26616489	     42.50285178	    108.46697761	     85.68408719	     64.05708592	      6.57001987	     66.17371918	    115.41137532	     72.43992996
      2.98333330	     -1.18120148	      3.47394835	     -1.87638873	      0.16859585	      0.92114287	      0.01746302	     -0.48464678	      3.97027298	      6.48136982	      2.78176527	      0.04855096	      8.19188523	     -7.16800932	     -7.49999987	      2.04950881	     -3.05452517	      0.72142948	      7.32085669	      0.12777305	      4.74173316	     -7.67823775	     -7.49999987	      3.23344090	      3.28726983	     -0.56841751	     49.11765576	      8.34112955	     43.64468380	    107.43987490	     85.50949252	     64.62646144	      6.30374741	     66.28247161	    115.53427126	     71.98987084
      3.00000000	     -1.20012577	      3.52521553	     -1.57031416	      0.16857040	      0.91966363	      0.01628351	     -0.11572144	      3.90125412	      6.31453341	      3.30774806	      0.05773109	      7.99901724	     -7.78759069	     -7.49999987	      1.87906067	     -2.93654652	      0.72673165	      6.77641902	      0.11827082	      4.40178290	     -7.63078180	     -7.49999987	      3.14416347	      3.23865557	     -1.08267967	     49.94103913	      8.30184902	     44.75125660	    106.51752637	     84.17512971	     65.40576377	      6.22361038	     66.30781065	    115.63834327	     71.43349068
      3.01666670	     -1.30848574	      3.61918196	     -1.27112431	      0.16848010	      0.92114577	      0.01541041	      0.31124357	      3.78246251	      6.23201191	      3.77611348	      0.06590561	      7.97727639	     -8.31654853	     -7.49999987	      1.78806269	     -2.80613908	      0.49927740	      6.21630050	      0.10849491	      4.14439538	     -7.25445554	     -7.49999987	      3.18159196	      3.11971636	     -1.18290459	     50.56697719	      7.99505371	     45.12932830	    105.96155660	     84.87659485	     66.05326334	      6.51505854	     66.50324385	    115.82597551	     71.06469919
      3.03333330	     -1.43370778	      3.68494451	     -1.10977360	      0.16641455	      0.92186629	      0.01443637	      0.78790622	      3.68742561	      6.21052139	      4.31453573	      0.07530285	      8.00940060	     -8.67136665	     -7.49999987	      1.79898874	     -2.69279148	      0.20293648	      5.79329875	      0.10111214	      4.03135826	     -6.80037519	     -7.49999987	      3.08813563	      3.09518289	     -1.28607868	     51.37677676	      7.72564979	     45.79739794	    105.92239671	     84.16695451	     66.69303985	      6.57629015	     66.70717153	    115.73410847	     70.71962535
      3.05000000	     -1.56801586	      3.77422057	     -0.85528965	      0.16544109	      0.92086491	      0.01379504	      1.20290185	      3.57647585	      6.16390419	      4.68324557	      0.08173805	      8.20744427	     -8.92807805	     -7.49999987	      1.91331181	     -2.57390398	      0.03618407	      5.59351330	      0.09762522	      3.90240355	     -6.48873256	     -7.49999987	      3.05925967	      3.10564185	     -1.23643583	     52.50746530	      7.60974923	     47.49571709	    107.35586780	     82.78503165	     67.29986208	      6.75901706	     66.90484572	    115.95324003	     69.98543359
      3.06666670	     -1.62659033	      3.86813994	     -0.89458904	      0.16442610	      0.92220765	      0.01542188	      1.48640925	      3.48972064	      6.22875993	      4.98649081	      0.08703068	      8.43751621	     -8.97088267	     -7.49999987	      2.03191582	     -2.50205687	     -0.19503893	      5.63481599	      0.09834609	      3.71846783	     -6.23553967	     -7.49999987	      2.90254889	      3.02016223	     -0.87875245	     53.96671107	      7.86697200	     51.44609366	    110.45736243	     82.93718917	     67.51518802	      7.02412116	     67.27523443	    115.78546697	     69.84887671
      3.08333330	     -1.65784039	      3.93196732	     -0.92335139	      0.16488784	      0.92498608	      0.01640169	      1.55271762	      3.46289935	      6.60695456	      4.94435162	      0.08629522	      8.38335593	     -9.25965509	     -7.49999987	      2.14033239	     -2.49121226	     -0.41620053	      5.69033779	      0.09931513	      3.56400855	     -5.87640423	     -7.49999987	      2.83313993	      2.97992911	     -0.75986523	     55.13137976	      7.92207932	     54.64274078	    113.02083688	     86.95143581	     67.84948606	      7.33115761	     67.70266970	    115.63035935	     70.31247370
      3.10000000	     -1.77598786	      4.00293256	     -0.95895319	      0.16372656	      0.92474634	      0.01717349	      1.62965410	      3.42895577	      6.72281941	      4.78731911	      0.08355448	      8.48780984	     -9.02513635	     -7.49999987	      2.53689269	     -2.51247531	     -0.48682493	      6.13533612	      0.10708182	      3.53579226	     -5.83035381	     -7.49999987	      2.92319589	      2.92626887	     -1.06959379	     55.30621155	      7.70817513	     55.91331442	    113.46485026	     86.06819780	     67.75620594	      7.23951028	     67.75929361	    115.39674443	     69.70123215
      3.11666670	     -1.71040969	      4.02198787	     -1.09669411	      0.16148514	      0.91965126	      0.01802119	      1.54851080	      3.47045722	      6.95460844	      4.71505271	      0.08229319	      8.44072292	     -9.29994984	     -7.49999987	      3.21177008	     -2.59989419	     -0.58343452	      7.34806633	      0.12824795	      3.77095167	     -6.11498391	     -7.49999987	      2.31364938	      3.03530223	     -0.33058204	     57.20272995	      8.03859856	     57.71777814	    116.09551213	     86.42443761	     68.98301128	      7.93769409	     68.36760480	    115.08307671	     69.69232885
      3.13333330	     -1.63717292	      4.12031239	     -1.16292916	      0.16195781	      0.91536872	      0.01820513	      1.45663493	      3.41300390	      7.21266867	      4.70391487	      0.08209880	      8.87639440	     -9.28275554	     -7.49999987	      4.11389852	     -2.63243410	     -0.44852542	      9.01352676	      0.15731572	      4.16516779	     -6.58312324	     -7.49999987	      2.16286770	      3.03568073	     -0.64850084	     57.57280297	      7.72538280	     56.46188906	    116.04855878	     85.47793934	     69.93524872	      7.76590624	     67.92276425	    114.52692698	     69.09027781
      3.15000000	     -1.51984029	      4.12541372	     -1.38552326	      0.16206628	      0.91945140	      0.02084484	      1.13544303	      3.45021678	      7.37842348	      4.59445299	      0.08018833	      8.97558493	     -9.25806210	     -7.49999987	      5.07862061	     -2.81403171	     -0.32962644	     10.83037147	      0.18902564	      4.48815868	     -7.05394543	     -7.49999987	      1.61273031	      3.26768594	      0.02644039	     58.46951049	      7.31380019	     55.38920893	    115.45505729	     85.50224379	     70.62054533	      8.10255561	     67.95725872	    114.17002663	     69.01141943
      3.16666670	     -1.51186378	      4.18273391	     -1.55997409	      0.16001450	      0.91604518	      0.02247378	      1.09489447	      3.49326839	      7.51215799	      4.63676052	      0.08092674	      9.38418235	     -9.19603494	     -7.49999987	      6.65413605	     -2.96295631	      0.10455247	     13.53263979	      0.23618912	      4.88651347	     -8.12690813	     -7.49999987	      1.09063122	      3.20715820	      1.10873884	     59.91857151	      6.72157796	     54.89808064	    116.37624633	     84.66614007	     71.74845608	      8.76842228	     68.34916955	    113.75110629	     68.43340514
      3.18333330	     -1.22574277	      4.31487685	     -1.81789594	      0.16238311	      0.92314129	      0.02474498	      0.61729320	      3.42633599	      8.01735721	      4.29274312	      0.07492250	      9.68780675	     -9.00932137	     -7.49999987	      8.19473967	     -3.05952560	      0.53805630	     16.99116500	      0.29655177	      4.88901375	     -8.94302850	     -7.49999987	      0.92547350	      3.10028274	      1.16553593	     58.97045797	      6.39845407	     54.40623868	    115.53480564	     84.83226511	     71.01539802	      8.35822939	     68.24248674	    113.42627361	     68.29923533
      3.20000000	     -1.46707485	      4.36386672	     -2.05423996	      0.16301245	      0.91553790	      0.02684291	      0.98017474	      3.51599540	      8.14273682	      4.50499721	      0.07862703	     10.21278395	     -8.89008469	     -7.49999987	     10.87592896	     -3.25093554	      0.95464279	     21.52284771	      0.37564456	      4.92995223	    -10.23395558	     -7.49999987	      1.29857586	      3.24628708	      1.64628339	     58.42448133	      6.61171628	     53.14434120	    116.32670693	     85.12120727	     70.51824609	      8.42777201	     67.70547501	    114.66116635	     68.15452062
